<?xml version="1.0" encoding="UTF-8"?>
<svg width="120px" height="66px" viewBox="0 0 120 66" version="1.1" xmlns="http://www.w3.org/2000/svg" xmlns:xlink="http://www.w3.org/1999/xlink">
    <!-- Generator: Sketch 40.1 (33804) - http://www.bohemiancoding.com/sketch -->
    <title>sprite</title>
    <desc>Created with Sketch.</desc>
    <defs></defs>
    <g id="2dev" stroke="none" stroke-width="1" fill="none" fill-rule="evenodd">
        <g id="sprite">
            <g id="Group-8-Copy" transform="translate(0.000000, 1.000000)">
                <g id="Group-7">
                    <g id="Group-6">
                        <g id="Group-5">
                            <g id="Group-4">
                                <rect id="Rectangle-52" fill="#3AB9BA" x="0" y="0" width="37.8947368" height="38"></rect>
                                <rect id="Rectangle-52-Copy" fill="#333799" x="42" y="0" width="37.8947368" height="38"></rect>
                                <text id="B" font-family="Lora-Bold, Lora" font-size="26" font-weight="bold" fill="#2A2E7E">
                                    <tspan x="10" y="28">B</tspan>
                                </text>
                            </g>
                            <text id="Y" font-family="Lora-Bold, Lora" font-size="26" font-weight="bold" fill="#3AB9BA">
                                <tspan x="52" y="28">Y</tspan>
                            </text>
                            <rect id="Rectangle-54" fill="#FFFFFF" transform="translate(39.840368, 18.839925) rotate(-315.000000) translate(-39.840368, -18.839925) " x="33.2543385" y="12.2356006" width="13.1720589" height="13.208648"></rect>
                            <text id="&amp;" font-family="Lora-Bold, Lora" font-size="10.3751588" font-weight="bold" fill="#0B9394">
                                <tspan x="36.8421053" y="22.6111111">&amp;</tspan>
                            </text>
                        </g>
                    </g>
                </g>
            </g>
            <g id="Group-2" transform="translate(0.000000, 40.000000)">
                <path d="M12.8571429,25.8333333 C19.9579468,25.8333333 25.7142857,20.0503447 25.7142857,12.9166667 C25.7142857,5.78298865 19.9579468,0 12.8571429,0 C5.75633893,0 0,5.78298865 0,12.9166667 C0,20.0503447 5.75633893,25.8333333 12.8571429,25.8333333 Z" id="Oval-1" fill="#2A2E7E"></path>
                <path d="M17.6618467,15.3347699 C16.8799019,14.6628785 16.0863392,14.2558869 15.3139919,14.9267633 L14.8528062,15.3322325 C14.5153778,15.6265656 13.8874984,17.0018116 11.4623584,14.1985427 C9.03721842,11.3988261 10.4798762,10.9629086 10.8178096,10.6711129 L11.2815211,10.2651362 C12.0503324,9.59273736 11.7598813,8.746276 11.2057512,7.87494857 L10.8713537,7.34717889 C10.315203,6.47788135 9.70904433,5.90697665 8.93922276,6.5778531 L8.52248864,6.94373958 C8.18202949,7.19290776 7.23086544,8.00283122 7.00002,9.5414828 C6.72219725,11.3876617 7.5980966,13.5017852 9.60650248,15.8214344 C11.6118776,18.1420986 13.5753267,19.3077591 15.4352237,19.2874603 C16.9804233,19.2707137 17.9144128,18.4374466 18.2063793,18.1344865 L18.6241236,17.7686 C19.3924298,17.0977236 18.915585,16.4146678 18.1331351,15.741254 L17.6618467,15.3347699 Z" id="Fill-1" fill="#FFFFFF"></path>
            </g>
            <path d="M43.6618467,55.3347699 C42.8799019,54.6628785 42.0863392,54.2558869 41.3139919,54.9267633 L40.8528062,55.3322325 C40.5153778,55.6265656 39.8874984,57.0018116 37.4623584,54.1985427 C35.0372184,51.3988261 36.4798762,50.9629086 36.8178096,50.6711129 L37.2815211,50.2651362 C38.0503324,49.5927374 37.7598813,48.746276 37.2057512,47.8749486 L36.8713537,47.3471789 C36.315203,46.4778813 35.7090443,45.9069767 34.9392228,46.5778531 L34.5224886,46.9437396 C34.1820295,47.1929078 33.2308654,48.0028312 33.00002,49.5414828 C32.7221973,51.3876617 33.5980966,53.5017852 35.6065025,55.8214344 C37.6118776,58.1420986 39.5753267,59.3077591 41.4352237,59.2874603 C42.9804233,59.2707137 43.9144128,58.4374466 44.2063793,58.1344865 L44.6241236,57.7686 C45.3924298,57.0977236 44.915585,56.4146678 44.1331351,55.741254 L43.6618467,55.3347699 Z" id="Fill-1" fill="#FFFFFF"></path>
            <g id="Arrow" transform="translate(52.000000, 40.000000)" fill="#0B9394">
                <polygon id="Path-2" points="16.5 2.5 6 13 16.5 23.5 18.5 21.5 10 13 18.5 4.5"></polygon>
            </g>
            <g id="Arrow" transform="translate(91.000000, 53.000000) scale(-1, 1) translate(-91.000000, -53.000000) translate(78.000000, 40.000000)" fill="#0B9394">
                <polygon id="Path-2" points="16.5 2.5 6 13 16.5 23.5 18.5 21.5 10 13 18.5 4.5"></polygon>
            </g>
            <g id="Dropdown_arrow" transform="translate(104.000000, 40.000000)" fill="#2A2E7E">
                <polygon id="Page-1" points="1 3 7.99941798 13.499127 15 3"></polygon>
            </g>
            <g id="Close" transform="translate(80.000000, 0.000000)" fill="#FFFFFF">
                <path d="M5,30 L16,19 L5,8 L9,4 L20,15 L31,4 L35,8 L24,19 L35,30 C35,30 31,34 31,34 L20,23 L9,34 L5,30 Z" id="Path-2"></path>
            </g>
        </g>
    </g>
</svg>